# xmcd
#
# Track frame offsets: 
#        150
#        24342
#        48072
#        62046
#        77155
#        99055
#        123006
#        142300
#        165945
#        200139
#        229658
#
# Disc length: 3560 seconds
#
# Revision: 0
# Processed by: cddbd v1.5.2PL0 Copyright (c) Steve Scherf et al.
# Submitted via: ExactAudioCopyFreeDBPlugin 1.0
#
DISCID=830de60b
DTITLE=Eric Bibb, Ale Möller and Knut Reiersrud - Blues Detour
DYEAR=2014
DGENRE=Ethnic
TTITLE0=Goin' Down That Road Feelin' Bad
TTITLE1=Willie and the Handjive
TTITLE2=Nobody's Fault But Mine
TTITLE3=Bye Bye Blues
TTITLE4=Doctor Aman
TTITLE5=Right on Time
TTITLE6=Springlek
TTITLE7=Buckride
TTITLE8=Flood Water
TTITLE9=Don't Ever Let Nobody Drag Your Spirit Down
TTITLE10=Needed Time-Wonderful World
EXTD=
EXTT0=
EXTT1=
EXTT2=
EXTT3=
EXTT4=
EXTT5=
EXTT6=
EXTT7=
EXTT8=
EXTT9=
EXTT10=
PLAYORDER=
